<svg id="Layer_1" version="1.1" viewBox="0 0 128 128" xml:space="preserve" xmlns="http://www.w3.org/2000/svg"><circle cx="64" cy="64" r="60" fill="#34ba5a" class="fill-382673"></circle><circle cx="64" cy="64" r="50" fill="#73db70" class="fill-473080"></circle><path d="M49 122.1c4.8 1.2 9.8 1.9 15 1.9 1.7 0 3.3-.1 5-.2V78.4L49 64v58.1z" fill="#ffde39" class="fill-ffde39"></path><path d="M59 30v32.3c0 2.4-1.6 4.6-3.9 5-3.3.7-6.1-1.7-6.1-4.8V30.2c0-2.4 1.6-4.6 3.9-5 3.3-.8 6.1 1.7 6.1 4.8z" fill="#f9a74e" class="fill-f9a74e"></path><path d="m58 27-7.9 9.9c-.7.9-1.1 2-1.1 3.1v14.9c0 2.4 1.6 4.6 3.9 5 3.2.7 6.1-1.8 6.1-4.9V30c0-1.1-.4-2.2-1-3z" opacity=".2" fill="#34ba5a" class="fill-382673"></path><path d="M69 35c0 1.1-.4 2.2-1.1 3.1L59 49.2v13.1c0 2.4-1.6 4.6-3.9 5-3.3.7-6.1-1.7-6.1-4.8v-15c0-1.1.4-2.2 1.1-3.1l10-12.5c1.7-2.2 4.9-2.5 7-.8 1.3.9 1.9 2.4 1.9 3.9z" fill="#fec632" class="fill-fec632"></path><path d="M67.3 38.9c-10.2.8-18.2 9.4-18.2 19.8 0 2.5.5 4.9 1.3 7.1 1.2 1.3 2.9 1.9 4.9 1.5 2.2-.5 3.7-2.7 3.7-5v-13l8.3-10.4z" opacity=".1" fill="#34ba5a" class="fill-382673"></path><path d="M82.8 69.8c-3.1 8.6-12.6 8.7-13.9 8.7-8.2 0-14.9-6.7-14.9-14.9s6.7-14.9 14.9-14.9C76.3 48.7 80 53 80 53" fill="none" stroke="#ffde39" stroke-width="10" stroke-linecap="round" stroke-linejoin="round" stroke-miterlimit="10" class="stroke-ffde39"></path><path d="M49 103h20.2c1 0 1.8-.8 1.8-1.8v-8.4c0-1-.8-1.8-1.8-1.8H49v12z" fill="#0cafe8" class="fill-0cafe8"></path><path d="M47 88h-1c-.6 0-1 .4-1 1v1h3v-1c0-.6-.4-1-1-1z" fill="#ffffff" class="fill-ffffff"></path><circle cx="66.5" cy="97" r="1.5" fill="#0b90d3" class="fill-0b90d3"></circle><circle cx="60.5" cy="97" r="1.5" fill="#0b90d3" class="fill-0b90d3"></circle><path d="M47 88h-1c-.6 0-1 .4-1 1v1h3v-1c0-.6-.4-1-1-1z" opacity=".2" fill="#34ba5a" class="fill-382673"></path><path d="M46 106h1c1.1 0 2-.9 2-2V91c0-1.1-.9-2-2-2h-1c-1.1 0-2 .9-2 2v13c0 1.1.9 2 2 2z" fill="#ffffff" class="fill-ffffff"></path><path d="M47 89h-1c-.2 0-.3 0-.5.1.9.2 1.5 1 1.5 1.9v13c0 .9-.6 1.7-1.5 1.9.2 0 .3.1.5.1h1c1.1 0 2-.9 2-2V91c0-1.1-.9-2-2-2z" opacity=".2" fill="#34ba5a" class="fill-382673"></path><path d="m91.3 32.6.9-2.3c.3-.6 1.2-.6 1.4 0l.9 2.3c.7 1.8 2.1 3.2 3.9 3.9l2.3.9c.6.3.6 1.2 0 1.4l-2.3.9c-1.8.7-3.2 2.1-3.9 3.9l-.9 2.3c-.3.6-1.2.6-1.4 0l-.9-2.3c-.7-1.8-2.1-3.2-3.9-3.9l-2.3-.9c-.6-.3-.6-1.2 0-1.4l2.3-.9c1.8-.7 3.2-2.1 3.9-3.9zM26.4 59.5 27 58c.2-.4.8-.4.9 0l.6 1.5c.5 1.2 1.4 2.1 2.6 2.6l1.5.6c.4.2.4.8 0 .9l-1.6.5c-1.2.5-2.1 1.4-2.6 2.6l-.6 1.5c-.2.4-.8.4-.9 0l-.6-1.5c-.5-1.2-1.4-2.1-2.6-2.6l-1.5-.6c-.4-.2-.4-.8 0-.9l1.5-.6c1.3-.4 2.2-1.4 2.7-2.5z" fill="#00c2a9" class="fill-00c2a9"></path><circle cx="99" cy="65" r="2" fill="#ffffff" class="fill-ffffff"></circle><circle cx="36" cy="41" r="2" fill="#ffffff" class="fill-ffffff"></circle></svg>